<svg xmlns="http://www.w3.org/2000/svg" width="32" height="32" viewBox="0 0 32 32"><path fill="#333" d="M16 0C7.163 0 0 7.163 0 16s7.163 16 16 16 16-7.163 16-16S24.837 0 16 0zm6 8c1.105 0 2 1.343 2 3s-.895 3-2 3-2-1.343-2-3 .895-3 2-3zM11 9.752c1.864 0 3.188.698 3.188 1.79 0 .23.12 1.344-.005 1.55-.463-.768-1.713-1.318-3.182-1.318s-2.718.55-3.18 1.318c-.125-.206-.006-1.32-.006-1.55 0-1.092 1.324-1.79 3.187-1.79zM15.636 26c-3.726 0-6.996-2.01-8.84-5.03 2.2 1.72 6.08 2.057 10.165 1.25 4.384-.867 7.786-2.862 9.015-5.52-.677 5.25-5.047 9.3-10.34 9.3z"/></svg>