<svg xmlns="http://www.w3.org/2000/svg" width="32" height="32" viewBox="0 0 32 32"><path fill="#333" d="M16 0C7.163 0 0 7.163 0 16s7.163 16 16 16 16-7.163 16-16S24.837 0 16 0zm6 7.375a3.63 3.63 0 0 1 3.574 4.23.625.625 0 0 1-1.232-.002c-.192-1.146-1.177-1.666-2.34-1.666s-2.15.52-2.342 1.666a.624.624 0 0 1-1.232 0 3.63 3.63 0 0 1 3.574-4.23zm-12 0a3.63 3.63 0 0 1 3.574 4.23.625.625 0 0 1-1.232-.002c-.193-1.146-1.177-1.666-2.34-1.666s-2.15.52-2.342 1.666a.624.624 0 0 1-1.232 0 3.63 3.63 0 0 1 3.574-4.23zM6 18h6v7.745C8.56 24.85 6 21.71 6 18zm8 8v-8h4v8h-4zm6-.255V18h6c0 3.71-2.56 6.85-6 7.745z"/></svg>