<svg xmlns="http://www.w3.org/2000/svg" width="32" height="32" viewBox="0 0 32 32"><path fill="#333" d="M16 0C7.163 0 0 7.163 0 16s7.163 16 16 16 16-7.163 16-16S24.837 0 16 0zm2.003 11.89c.064-1.482 1.413-2.466 2.55-3.035 1.086-.543 2.16-.814 2.205-.826a1 1 0 0 1 .485 1.94c-.55.14-1.204.38-1.78.667a2 2 0 1 1-3.46 1.254zM8.03 8.76a1 1 0 0 1 1.213-.728c.045.01 1.12.283 2.205.826 1.137.57 2.486 1.553 2.55 3.036a2 2 0 1 1-3.46-1.254A9.195 9.195 0 0 0 8.76 9.97a1 1 0 0 1-.73-1.212zm13.973 15.64C20.78 22.362 18.55 21 16 21s-4.78 1.362-6.003 3.398l-2.573-1.544C9.174 19.946 12.36 18 16 18s6.827 1.945 8.576 4.854l-2.573 1.544z"/></svg>