<svg xmlns="http://www.w3.org/2000/svg" width="32" height="32" viewBox="0 0 32 32"><path fill="#333" d="M20 14a2 2 0 0 1-1.997-2.11c.064-1.482 1.413-2.466 2.55-3.035 1.086-.543 2.16-.814 2.205-.826a1 1 0 0 1 .485 1.94c-.55.14-1.204.38-1.78.667A2 2 0 0 1 20 14zM8.758 9.97a1 1 0 0 1 .485-1.94c.045.01 1.12.282 2.205.825 1.137.568 2.486 1.553 2.55 3.036a2 2 0 1 1-3.46-1.254A9.22 9.22 0 0 0 8.76 9.97zM16 23c2.55 0 4.78-1.362 6.003-3.398l2.573 1.544C22.826 24.054 19.64 26 16 26s-6.827-1.945-8.576-4.854l2.573-1.544A6.995 6.995 0 0 0 16 23zM32 2a9.97 9.97 0 0 0-.833-4 10.036 10.036 0 0 1-5.453 5.287C23.02 1.227 19.654 0 16 0S8.98 1.226 6.286 3.287A10.033 10.033 0 0 1 .833-2 9.97 9.97 0 0 0 0 2c0 2.3.777 4.417 2.08 6.106A15.923 15.923 0 0 0 0 16c0 8.837 7.163 16 16 16s16-7.163 16-16c0-2.87-.757-5.565-2.08-7.894A9.956 9.956 0 0 0 32 2zM16 29C8.82 29 3 23.18 3 16S8.82 3 16 3s13 5.82 13 13-5.82 13-13 13z"/></svg>