<svg xmlns="http://www.w3.org/2000/svg" width="32" height="32" viewBox="0 0 32 32"><path fill="#333" d="M32 2a9.97 9.97 0 0 0-.833-4 10.036 10.036 0 0 1-5.453 5.287C23.02 1.227 19.654 0 16 0S8.98 1.226 6.286 3.287A10.033 10.033 0 0 1 .833-2 9.97 9.97 0 0 0 0 2c0 2.3.777 4.417 2.08 6.106A15.923 15.923 0 0 0 0 16c0 8.837 7.163 16 16 16s16-7.163 16-16c0-2.87-.757-5.565-2.08-7.894A9.956 9.956 0 0 0 32 2zm-13.997 9.89c.064-1.482 1.413-2.466 2.55-3.035 1.086-.543 2.16-.814 2.205-.826a1 1 0 0 1 .485 1.94c-.55.14-1.204.38-1.78.667a2 2 0 1 1-3.46 1.254zM8.03 8.76a1 1 0 0 1 1.213-.728c.045.01 1.12.283 2.205.826 1.137.57 2.486 1.553 2.55 3.036a2 2 0 1 1-3.46-1.254A9.195 9.195 0 0 0 8.76 9.97a1 1 0 0 1-.73-1.212zM16 26a9.994 9.994 0 0 1-8.576-4.855L9.997 19.6C11.22 21.638 13.45 23 16 23s4.78-1.363 6.003-3.4l2.573 1.545A9.996 9.996 0 0 1 16 26z"/></svg>