<svg xmlns="http://www.w3.org/2000/svg" width="32" height="32" viewBox="0 0 32 32"><path fill="#333" d="M16 0C7.163 0 0 7.163 0 16s7.163 16 16 16 16-7.163 16-16S24.837 0 16 0zm6 8a2 2 0 1 1 0 4 2 2 0 0 1 0-4zM10 8a2 2 0 1 1 0 4 2 2 0 0 1 0-4zm11.47 17.33a5.006 5.006 0 0 1-6.41-2.988 3.004 3.004 0 0 0-3.845-1.793A3.004 3.004 0 0 0 9.31 24H7.28a5.007 5.007 0 0 1 3.25-5.33 5.006 5.006 0 0 1 6.408 2.988 3.004 3.004 0 0 0 3.845 1.793A3.004 3.004 0 0 0 22.69 20h2.028a5.007 5.007 0 0 1-3.25 5.33z"/></svg>