<svg xmlns="http://www.w3.org/2000/svg" width="32" height="32" viewBox="0 0 32 32"><path fill="#333" d="M16 32c8.837 0 16-7.163 16-16S24.837 0 16 0 0 7.163 0 16s7.163 16 16 16zm0-29c7.18 0 13 5.82 13 13s-5.82 13-13 13S3 23.18 3 16 8.82 3 16 3zm-8 7a2 2 0 1 1 4 0 2 2 0 0 1-4 0zm12 0a2 2 0 1 1 4 0 2 2 0 0 1-4 0z"/><path fill="#333" d="M21.12 16.88a3 3 0 1 0-4.127 4.35C19.697 23.685 26 21.174 26 18c-1.94 1.25-3.453.307-4.88-1.12z"/><path fill="#333" d="M10.88 16.88a3 3 0 1 1 4.127 4.35C12.303 23.685 6 21.174 6 18c1.94 1.25 3.453.307 4.88-1.12z"/></svg>