<svg xmlns="http://www.w3.org/2000/svg" width="32" height="32" viewBox="0 0 32 32"><path fill="#333" d="M16 32c8.837 0 16-7.163 16-16S24.837 0 16 0 0 7.163 0 16s7.163 16 16 16zm0-29c7.18 0 13 5.82 13 13s-5.82 13-13 13S3 23.18 3 16 8.82 3 16 3z"/><path fill="#333" d="M20 21c0 2.76-1.79 5-4 5s-4-2.24-4-5 1.79-5 4-5 4 2.24 4 5zM13 10.625a.997.997 0 0 1-.707-.293c-.604-.604-1.982-.604-2.586 0a1 1 0 1 1-1.414-1.414c1.392-1.392 4.023-1.392 5.414 0A1 1 0 0 1 13 10.625zM23 10.625a.997.997 0 0 1-.707-.293c-.604-.604-1.982-.604-2.586 0a1 1 0 1 1-1.414-1.414c1.392-1.392 4.023-1.392 5.414 0A1 1 0 0 1 23 10.625z"/></svg>