<svg xmlns="http://www.w3.org/2000/svg" width="32" height="32" viewBox="0 0 32 32"><path fill="#333" d="M16 0C7.163 0 0 7.163 0 16s7.163 16 16 16 16-7.163 16-16S24.837 0 16 0zM9.707 10.332a1 1 0 1 1-1.414-1.414c1.392-1.392 4.023-1.392 5.414 0a1 1 0 1 1-1.414 1.414c-.604-.604-1.982-.604-2.586 0zM16 26c-2.21 0-4-2.24-4-5s1.79-5 4-5 4 2.24 4 5-1.79 5-4 5zm7.707-15.668a.997.997 0 0 1-1.414 0c-.604-.604-1.982-.604-2.586 0a1 1 0 1 1-1.414-1.414c1.392-1.392 4.023-1.392 5.414 0a1 1 0 0 1 0 1.414z"/></svg>