<svg xmlns="http://www.w3.org/2000/svg" width="32" height="32" viewBox="0 0 32 32"><path fill="#333" d="M11.447 8.856c-1.086-.543-2.16-.814-2.205-.826a1 1 0 0 0-.485 1.94c.55.14 1.204.38 1.78.668a2 2 0 1 0 3.46 1.254c-.065-1.482-1.415-2.466-2.552-3.035z"/><path fill="#333" d="M16 0C7.163 0 0 7.163 0 16s7.163 16 16 16 16-7.163 16-16S24.837 0 16 0zM7.39 25.74c.336.165.712.26 1.11.26h15c.398 0 .775-.094 1.11-.26C22.315 27.767 19.3 29 16 29s-6.316-1.232-8.61-3.26zM8 23.5v-3c0-.27.23-.5.5-.5H12v4H8.5c-.27 0-.5-.23-.5-.5zm6 .5v-4h4v4h-4zm6 0v-4h3.5c.27 0 .5.23.5.5v3c0 .27-.23.5-.5.5H20zm5.74.61c.165-.336.26-.712.26-1.11v-3c0-1.378-1.122-2.5-2.5-2.5h-15A2.503 2.503 0 0 0 6 20.5v3c0 .398.094.775.26 1.11A12.946 12.946 0 0 1 3 16C3 8.82 8.82 3 16 3s13 5.82 13 13c0 3.302-1.23 6.316-3.26 8.61z"/><path fill="#333" d="M22.757 8.03c-.045.01-1.12.283-2.205.826-1.137.57-2.486 1.553-2.55 3.036a2 2 0 1 0 3.46-1.254 9.195 9.195 0 0 1 1.778-.667 1 1 0 0 0-.484-1.94z"/></svg>