<svg xmlns="http://www.w3.org/2000/svg" width="32" height="32" viewBox="0 0 32 32"><path fill="#333" d="M8 20.5v3c0 .27.23.5.5.5H12v-4H8.5c-.27 0-.5.23-.5.5zM14 20h4v4h-4v-4zM23.5 20H20v4h3.5c.27 0 .5-.23.5-.5v-3c0-.27-.23-.5-.5-.5z"/><path fill="#333" d="M16 0C7.163 0 0 7.163 0 16s7.163 16 16 16 16-7.163 16-16S24.837 0 16 0zm2.003 11.89c.064-1.482 1.413-2.466 2.55-3.035 1.086-.543 2.16-.814 2.205-.826a1 1 0 0 1 .485 1.94c-.55.14-1.204.38-1.78.667a2 2 0 1 1-3.46 1.254zM8.03 8.76a1 1 0 0 1 1.213-.728c.045.01 1.12.283 2.205.826 1.137.57 2.486 1.553 2.55 3.036a2 2 0 1 1-3.46-1.254A9.195 9.195 0 0 0 8.76 9.97a1 1 0 0 1-.73-1.212zM26 23.5c0 1.378-1.122 2.5-2.5 2.5h-15A2.503 2.503 0 0 1 6 23.5v-3C6 19.122 7.122 18 8.5 18h15c1.378 0 2.5 1.122 2.5 2.5v3z"/></svg>